<?xml version="1.0" encoding="utf-8"?>
<!-- Generator: Adobe Illustrator 25.4.1, SVG Export Plug-In . SVG Version: 6.00 Build 0)  -->
<svg version="1.1" id="Layer_1" xmlns="http://www.w3.org/2000/svg" xmlns:xlink="http://www.w3.org/1999/xlink" x="0px" y="0px"
	 viewBox="0 0 32 32" style="enable-background:new 0 0 32 32;" xml:space="preserve">
<style type="text/css">
	.st0{fill:none;}
	.st1{enable-background:new    ;}
	.st2{fill:#FFFFFF;}
</style>
<desc>Created with Sketch.</desc>
<rect x="1" y="1.1" class="st0" width="30" height="29.2"/>
<g class="st1">
	<path class="st2" d="M1.3,21.7l2.2-2.6c1.2,1.1,2.4,1.8,3.9,1.8c1.7,0,2.7-0.8,2.7-2.3v0c0-1.4-1.2-2.2-2.9-2.2c-1,0-2,0.3-2.7,0.6
		l-2.1-1.4l0.5-8h10v3.1H5.9l-0.2,2.8c0.7-0.2,1.2-0.3,2.1-0.3c3.2,0,5.7,1.5,5.7,5.2v0c0,3.5-2.4,5.6-6.2,5.6
		C4.8,24.1,2.9,23.2,1.3,21.7z"/>
	<path class="st2" d="M16.2,15.7L16.2,15.7c0-4.8,2.9-8.5,7.3-8.5c4.3,0,7.2,3.7,7.2,8.4v0c0,4.7-2.9,8.4-7.3,8.4
		C19.1,24.1,16.2,20.5,16.2,15.7z M27,15.7L27,15.7c0-3-1.4-5.2-3.6-5.2c-2.1,0-3.5,2.2-3.5,5.2v0c0,3,1.4,5.2,3.6,5.2
		C25.7,20.9,27,18.7,27,15.7z"/>
</g>
</svg>
