<?xml version="1.0" encoding="utf-8"?>
<!-- Generator: Adobe Illustrator 25.4.1, SVG Export Plug-In . SVG Version: 6.00 Build 0)  -->
<svg version="1.1" id="Layer_1" xmlns="http://www.w3.org/2000/svg" xmlns:xlink="http://www.w3.org/1999/xlink" x="0px" y="0px"
	 viewBox="0 0 32 32" style="enable-background:new 0 0 32 32;" xml:space="preserve">
<style type="text/css">
	.st0{fill:none;}
	.st1{enable-background:new    ;}
	.st2{fill:#FFFFFF;}
</style>
<desc>Created with Sketch.</desc>
<rect x="-0.3" y="-0.4" class="st0" width="32.6" height="31.7"/>
<g class="st1">
	<path class="st2" d="M0.3,15.8L0.3,15.8c0-2.4,1.7-4.3,4.3-4.3c1.6,0,2.5,0.5,3.3,1.3l-1.2,1.3c-0.7-0.5-1.3-1-2.2-1
		c-1.4,0-2.4,1.2-2.4,2.6l0,0c0,1.4,1,2.6,2.4,2.6c1,0,1.5-0.4,2.2-1L8,18.5c-0.8,1-1.7,1.6-3.4,1.6C2.1,20.2,0.3,18.2,0.3,15.8z"/>
	<path class="st2" d="M8.9,18.7l1.1-1.3c0.8,0.7,1.5,1,2.5,1c0.8,0,1.2-0.3,1.2-0.8l0,0c0-0.4-0.3-0.7-1.6-1.1
		c-1.6-0.4-2.7-0.9-2.7-2.6l0,0c0-1.5,1.2-2.5,2.9-2.5c1.2,0,2.3,0.4,3.2,1.1l-1,1.4c-0.8-0.5-1.5-0.9-2.2-0.9
		c-0.7,0-1.1,0.3-1.1,0.8l0,0c0,0.5,0.3,0.8,1.8,1.1c1.7,0.4,2.6,1.1,2.6,2.5l0,0c0,1.6-1.3,2.6-3,2.6C11.2,20.2,9.9,19.6,8.9,18.7z
		"/>
	<path class="st2" d="M16.7,18.9l1.1-1.3c0.7,0.5,1.3,0.9,2,0.9c0.9,0,1.4-0.4,1.4-1.2l0,0c0-0.8-0.7-1.1-1.5-1.1
		c-0.5,0-1,0.1-1.4,0.3l-1.1-0.7l0.2-4.1h5.2v1.6h-3.6v1.4c0.3-0.1,0.7-0.1,1.1-0.1c1.6,0,2.9,0.8,2.9,2.7l0,0
		c0,1.7-1.3,2.9-3.2,2.9C18.4,20.2,17.4,19.6,16.7,18.9z"/>
	<path class="st2" d="M24.3,15.8L24.3,15.8c0-2.5,1.5-4.3,3.7-4.3s3.7,1.8,3.7,4.3l0,0c0,2.4-1.5,4.3-3.7,4.3S24.3,18.3,24.3,15.8z
		 M29.8,15.8L29.8,15.8c0-1.5-0.8-2.7-1.8-2.7s-1.8,1.1-1.8,2.6l0,0c0,1.5,0.8,2.7,1.8,2.7C29.2,18.5,29.8,17.3,29.8,15.8z"/>
</g>
</svg>
